P2
# Generated by OpenCV 3.4.9
64 64
255
 158 132  40 124  26 178  35  60 120  13 228 211 200 141 223 108 164 227  30 105  75 253 178  40  30  89 189  44 110 170  63 173  13  80 194 118 200 121 153  74 214  58  80 155  32 140 221 195  75 149  78 154 127 146  53  81   0 161 241  14   4 241 212 203
 151 121 150 121 168 111 250  14  42 187 139  88 107 212  42  58 199 165 111 113 188   0 230  70 194 195  66 127  30 141  53 139 250 220 207   4  47 195  18  10  84 107 205  34  38   9  43 250  76 133 250  59 131 202 208  66 224  71  53 169 222  74  10  69
  22 220 105 253 213  11  62  48 114 203 102 227 245 221  20 161  68  38  70  80 157 136  77 159 163  24 133 139 144 245 251 207  22 237 154 120 152  21  59  38  32 231 185 160  93 239  46 153  53  33  68   9  27  67 209 180  38  24 144  43 207  70  90  67
 106 191 210  92 234 146 145  94 242 157 227 234 124 240 147 114 193 253 207 215  20  54 236 214 153 142  90 199 137 240 148 154  23 107 242  34 173  46 236 123 248  10 210 203  12 154 151 194 149 217  78  31 203 131  99 225 128 109 110 125  60 163  23  67
 232  36  20  72 160  90  35  36  32 214 131 226  58  24 123  57 245 228  10 173  86  34  48  50  42  26 229  51 174  57 251 103 208 196 122  34 127 222 207 242 115 201 129 123 124 221  15 215 138 185 143 212 160  63 195 234 191  17  48 240 192  36 148  47
  84  51 125 185  86 128 202 145 170 171  68  92  56 233 194 116 202 224 165  20 242 166  97 154 243 161 143 250  83  79  23  47 107 170  42  14 211  91 109 194  60 154 225  21 121 204  40 243 139 165 221 210 231 104 162 183  15  44 103  38 164 113 110 225
  49  62 137 178 170 130 236  60  41 162   0  43 222 149  67   4 221 115  50  99 171  83 254  24  12  13  12  53  22  60  13 108 125 163 177 151 178 250  92 149  35  48  46  98 125 145 178 187  72  35  52 142 253 109 132 207 164  84 230  40 224 190 182  69
  24  51 181 194 159 153  69 236 253 182  36  24  79 251 197 165  57  85  13 151  42 152 240  11  96 103 169 135  62 230 247 142 193  43 241  48 111  58  44  17  74 124 104  94 181  16  78 130 134 193 240  21  58 191  20 243  74  82 243  89 118 214 136 213
 122 143  15 210   5  59 128  65  65 179 209 244 181 141 135 170 166 144 233  14  75  96 229 153 157 241 226  19  90 211 151 227  56 115  87  17 203 237 146  89  84  33 177  79 211 110 161  41  70 123  31  63 125 155 180 193  64 192  22 127  51 213 191 173
  86 185 158  29 215 107  28  69 241 185  60 188 221  61 187  99 174  60 222 134 184 117  61  59  22   8 222 158 218 215 155  40 215 150 188 109 141  73  31 122 121 135  70  21   3 182 167 231  66  54  27 243 134 116 193 218 241 147 136  89 150 168 111 189
 162 194  85  56 159  98 144 158  79 162  26  27  71 209  41 166 138 140 209 242   5 215  55 127  90 158 111  88 159 133 183  20 150  35 101 217 107 127  40  42 162 118   2 199 248 233 121 243 157 247 172 110   3 186 109 174  45  33 116 208 181  31  56 190
 114 121  74 163  34 209  37 177 249 184  51 111  31 173 117  82 190  97  93 146  67 178 150  28  51 251 221  25  59 189 170  23  93 241 253 186 105 168  81  16  26 107 118 245  75 224 196 222 241  93 214  49   6  64 158 219  92 177 204   4  91  14 220  66
  79 211 228 223   0 108 214 247  45 245   4 174 206  62  22   7 184  97  13  66 138 128 197 113 252  34   6 220 143  89   4  52 102 202 153  25 122  29 233 236 145 148  79  51  96  13 185 204 208 164 163  14  88  95 187 167  90 228 173   8  37 241  86 127
   5  25  53 185   0 129  11  35  65 185  36  18 194 172  36  83  60 206 236 195   6 138 127 153  85  24 194  67 137 120 186 214  55 233  45 145 115  67  74  52  48 152 119 247  76 173  59 126  42  23  22 138  69 252 170 174 126 204 162 245 181 118 167 228
 202 247   5 230  23 243 142 194  86 151 199  91 215 238 218 239 114  36 168  40  98 201  13  12  96 103 216 241 194 174 130  69 235 203  85  12  57  95  50 249 124 168 203  21  67 100  60 236 213  12  16 193 191 114 140   4 204  94  71  40  10 140 115  61
   3 235 126  70 242 126  24 223 164  87 100 233 193 145  41 172 173  58 134  92 196  44 108  74  79 130 125 196  28 137 149 114 205 238 172  78 165  79 133  35 186  13 184 206  46   1  58 103   5 235 192 167 219   2 167  17 214 135 200 134 123 235 190 178
  94 221 194  85 235 156  13 178 219  45 215  90 192 133  44 254 242 193 128 184 100  13 146 117 200  53 233 150 160  13 176  48  74 135 107  59  72 166 136  74 189 241  16  82  37 124 233 122  31 127  65  91 131 100  29  92  47   3  88 238 179 211 151  82
  66 162  67  19 151 152 250 111 179  40 123 146  42  63 248  80 198  49  10  68  26   8 188 218 114 202 104 171  18  86 225 226 193  78 215  60  85 220   3 181  37 142 231  36 162  12 245 162 195   5 131 141 132 235  34 252  34  84 197 131 115 109 125 162
 170 136  41 161  18 100  58 102 123 101  24  60 157  78 209 161 204  19 118 188 234 173 246 124 231 162 172   2 207  99  79 156  46  18 228 174 111 243 112  89 210 216 218  75 170 202 178 148 151 133 245 204 144  77 177 216  35 133  12 168 126 175 219 144
 127  97 250  22  46 110  10  25 155 176 221 228 223 246 118 171 223 218 108  58 204  69 208 114 102 170  53  59  43  28  19 154 184  23  21 251  18 183 159  78  76  75 136  24  57  84 250 190 229 217 166  91 150 154  60  61 225  11  14 157  86  19 225   7
  71 247 229   8 123 150   9  44 246  33  74 154  10 199  90  71 161 195 179 175 126  53 254 247  17  13 119 168  89 218  86  37 212 228  37 171 103 249  33 169  10 174  29  60  87   9 143  90 146 150 241  59 230  49 127 194 106 156 238  54  18 124 125 211
 122  36  76 247 148  36  66  20 193  92  77  66 235 168  57 146  55 195 229  27 104 107 243 128  59  67 243 226 207 111 226  61 184 157  61  26 247 207   5  34 173 200 234 130  55  68 243 179   3 203 138 100 106 238   5 175 118  84  36  28 200 116  98 105
 106 105 110 226 177 195 241 176  90 246  87  12 104 114  76  91 175  31 190 121  39 127  33 238  36  59 208 227  58 238 204  60  16  26 220 190  82  30 238 111 241  15 241 125  74 178  55  20  74 150 194 172 148   9  87 150  34 140 153 193 118 122  99 117
  46 141 131 188 131 140  40  42  50 202 150 179 154  25 208  65  35  23 198  45 127 114  20 237 122 157 101  33 157  64 161 110  79 235  88 224  83   1 238 172 166 122  29 140 213 168 206  61 155  53 193 205 232 252 188  65 117 239 214 203  72  37  12 181
 161 164  26 221 182  68  51 236   1  71  39 106  49 178  12 238 111  73  17 140 126 251 136  95  27 213  13 192  60  67 209 214  48 200 250 197 110  63 158 126  66 253  47 148 133  83 153  86  20 131 143  80 223  29 183 166  64 254  99 217 235 191  87  78
  74  16  25 233  24  13 125  78 195  36 131  21 252 150  18 197 118  81   8 138 197 158 158 211 220 132 226 145 128 114 105 239  13 110 123 180  17   6  65 145 209 253 176  20  55  68 189   0 116  96 232 178 232  42 145 199 209  24 212 180 178  45  45  61
 174 142 240 207 177  83   5 165 128 121 152 201 237  17 169 102 185  73  26 166 184 111 137  13  10   6 123  52  85 163  72 236 113 234 251 195 188 183  70 135  47 187 116  61 142 208 153 247 158  40 102 226  41 157 230  64  51  65 235 240 224 209 254 132
 229 133  27  44 135 239  34  21 201 240 121 220  28 168  57  90  76 190  62 194 243  36 253  82 217 108  67 238 145 238  43 233  41 224  19  45 213  29 138 155 177  55  81 211  62 173 140  97 191  29 101 217 155  15 102 138  51  13 104 231 163  15 172 229
 131  92  71 149 137 232 112 113   6 175  49 212  73  36  38  86 128  13 199  31 114  79 212 251 230 221 123 140  73  41  93 253 150  17 153  68  20 150 244  23 220 148 116  94 215 228  29  61 146 145 253 184 233 251  98 186 134  25 239 183 253 126 127 206
  78 178  47 241 243 172  77  16  90 157 197 233 222  71   5 150 243 134  69 155 106 122 119 133  19  32 141  86 143 168  26 230 135  49 230 134 148 136 140  94 176 119 135 169 108  44 144  20   1 102 145  57 109 178  79  25 142  62 223 173 186 210 108 100
 155 152 135 252 225  16 179 233 253  87 125 213 124 106  14 238  39 204  84 154  36 135  38   2  95 138 241  84 253  91  42 182 208 127 204 218 196 199  84  15 164  18 121 133  37   4 170  33  62  33 186 251 222 233  15 231 145 201  95 130 175  84  65  86
 155 199  29  47 181 211 247 121 206  91  24  57 156 184 236 101  12 127 167 151 170  80 236  42 169 167 198 109 121 221 175 110 113 101  28 245 231 104  16 144 153 124 153  68  15 248 101 250 212 239  92  55 172 153 178 119  98  45 220  14 146 171 237 206
  81  84  72 234 152  93  15 213 235 221   2 230  51 251 157 238   4  77 187  76 127 253 205  59  66 205  85 139 119  59 162 131 108 242 137 253 105 151  78 240 234 212 243  73 230   0 174 175  83 195  98 229 188   3  79  28  50 122  80 145  71  64  20  17
 186 227 190 118 210  54 235  43  32 111 101 163 181  14 198 103 153  58  95  51 248  25  90 187  94 132 124  66 200 189 125 145 239 238 123   2  11 218 221  96  65 126 140 240  16 228 210  36 193  18 180  51 173  37 163 198 233  35 133  75  66  35  39 215
  87   8  31  37 210 100  89 156 211  34 176 237 251  27  25 152  48   9 145  93  74 226 189 169 119 103 253 142 173 100 138 183  31  13 176 104 186 247 231 135 239  95  81 166  98  48 219  98  77  33 147 146  51 171   3  19 135  11 168 164   3  53 131 117
 239  33  39 119 220  66  27  45 141 230 237 156 187 110 164  25 248 206 241  86 228  63 107 120  60 176  91  26 200 117   1   3  72  26  24   8   8 124 178 107  84 153 233 197 187  33  73  55 117 202  66 137  26  62 122 188 198 125 138 226 253 131  39 215
 237  47  86 225  89 211 251  62 219  52 133 199 248  31 179  26  89 127 222 236  85  69  61  43  82 235  79 254 175   9  61 133 235  69 229 129 241  11  73  72  21 115 102  45 143 248  89  98   4 143 217  37  88 123 230 190 118 225 164 242  69 129 235 228
  49 160 212  79 175  22 106 206  69 245 240 170 234 207 140 109 201   7 240  22  16 101  55 132  59 244 177 161 171  70 113 117  67  90  82  85 155  93 110  79  91 213 100  42 233 200  37  22  58 155 224 111  44  80  47  69  10  27 201 193 252 162  87 109
 107 223 178  60  18  71 127  19  29  43  69 245 250 216  36 215 253 181 243 119 124 147 178 219 159  95  54 220  30  26 247  81 170 165 247 163 218 111 221 222 209 225 148  57 244 244 198 226  77  16  38 185 235  16 116 198 172  79 232 244 219 202 176  20
  27 101 173  36  59  57  50  83 161   6  32 170 184 216 206  16 252 202 149 147 213 202  82 230 146  22  91   6 221 121  69  10 193 225  21 127 167  49 158  23 225  42  96  27 200 237 190  13 247 108  63 243  57  22 244 107  50 107   0   7 128 190 237 191
 233 194  97  39 208 132  41 192  51 137  61 125  24 142 178 211 228 159 131 142 184 198  99  29  32  17  73  38 108  13 197 187 120 240  34 207 146 188  29 140 128 154 171 171 245 182  26 103 204  14 215  73 115  97  96 205 139 169 169 206  15  91 246 187
 193 233  69 129 124  60 155  27 101  17 107 245  24 146 251 198  84 138 141 120 138 174  88 197  52 190  15  21  69  93 117 254  86 225 149 236 142 197 100 165  98  56  25 152 245  31  26 179  39  83 111 219 218 229 173 215 239   1  94 230  15 191  36  26
 167  40  34 114 134 108 103 224  72  16  87 104 102  98 247   3 195 190 230  44  22 164 152 251  99 220  52 160  77  44 236 101 216  23  85 173  92 232 215 212 241 117 118 193  25 136  28 182 146  53  16 210  54 224 161  74 230 185 213 160 104 243 151 121
 244 188 211 167 239   4  34  74 146 167  75   3  62  76 233 184 197 153 150 201 111 185  57  34   9 222 124  14 202  75  65  19 121 159 111  22 181 113  84  59  93 176 252 147 153 124 227  96 189 237 104 139  84 141 145 133 227  73 116 168  60 103 180 126
 229 180 141 121 143  25 125 144  18  10 137  84 243  76 245  47 188  77  96  47 171  28  56 217  69  53 203 122  98 147  29 113  23  16  90 123 121 207  75 159  14 222 221 153 159 153 240  24  72 128 102  41 147 144  35 238   6  13  99 163 199  61 193  29
  89 167  35 131  45  14 155  21 119 209 151  45 206  89  47   3 100  72 155 147 216  30  73 141  36 192   4  91 103  81 198  32 254  52  51  99 104   1  52 115 110 147  33  70 162 160 108 149  40   5 144 102 233 171 245 245  83 214 247 252  53   5  93  12
 219  82  37  30 216  31 154 132 205  19  47 137  88 175 181 104 233 250 184 215  90  78 123 226 214 208 116 246 103 173 218 173 208 210 194  27 162 146 188 230 235  26  19  45 183  23 240  86 109 203 212 205 208 149  85  32  52 161  76 192 168  23 156  93
 154 201 106 200 126  35 194 155 110  10 126 221 169 229   1  25 133  40 172 162 170  91   3 158 173 234 147  41  11 158 121 233 249  89 189 222  60 106 121 126 176 210 177 128  11 200 213 131  67 245  88 104 143  83  91  48  59 208 127  41 112 143 163 150
 201 211 246 220 228 176 116  84  48 120 120  86 189 121 130 108  29 201 100 124 180 143 172 201  43  53 104 195 110 198 252 189 115  46  46 161 216  11 148  98  23  98  35 165 227   3 159 250  71 235 212  88 190 178  56 146  44 206 154  97  96  95  36 148
 214 183  44 135 197 254 139  71 125  81  63 236 102 233  98 238 241 161 109 124 199  57  54 209 181  41 141  19  60 242  14  89   9 158 164 170 150 191 228 128  53  15  64 181  31 155 137 174 239  13 148 180   0  65 125  76 135  39 182 254 105 206 176 197
   3 205  48 168 236 210 199 105 192 207  81 233  58 136 120 151 235 155 188  52 168   1 252  13 163 228 174 239  35 233 248  23 102   1 119 206 188 144  58 120 122 209 171 146  58 233 254 150  51 138  77 203 167  67 121 190  24 157  82 145  45  62 124  19
 228  18 100 118  46  76 123  32  20  18  79  57 189   7 146 150  30  44  27 111 227 223 142  14 237  41 106 248  74  42 178 211 105 211 162 205 253 101 173 176 147 216 187  38  82 225  17  87 181 254 110 222 249 121  56 196 131 201 239 196 192 200 220  76
  28 223 178 164 200 203  59  83 201 237 204 184   2  79  13 156  38 226 179 137 248 170 108 181 231  61 254  37   3  85  86 210 114 224 102 131 154  64  76  86 167 160  19  44 145 229 241 228 110 137 175  51  60 208 233  61  57 183 162  98 100 157 129  59
 236  70  77  63  92 125  97  20  49  58 170 201  81 188 152  28 215  50  16 143  43 175 124  97 229  72   0 107 103 191 160 133 191 157  40  60  58 223 175 226 219  37  60 172 183 162 201 208  95 216 155  91   1  11 251 198  24 179 252 119 205 141  67  32
 150   3 112 228 184  94  65 172 110  87 107 233  27  58  78 242 234 210 183 183 186  38  53 129 124 183  74 146  17 222 123 195 200 192 204 240  15   4 106 230 221  79 192  15  47  48  63  16 138   9  74  95 144  29 231 226  34 237 148 179 233 110  88 177
  98 217  54 213 137  59 120 161 215  78 224 193 128 158  57 184 173  54 233  70 190 210  20  60 119  47 207 143 185 201  69 141 148  87 206 241 159  67 184  32  11 135 191 170 195 107 118 124  60 137 240  24 191 196  91  40  51 192 198 235  96  20 207 225
  95 128 135 243 132 208  79 137 206 192 195  59  16  76 199 209 172  34 143  35  37 187   6 224 198  70  10 130 204 139  35  38 186 108   8  18  39 215  12 252 100 166 219 173 132 253 198 241  28 239 224 191   8 163  53 115  63   8 194 195 112 111 228 184
 227  87 173 196 165 252  54  71  27 149   8 236  44 190  92 210 134 223  54   3 230  59 122 160 123  43 223 188 104  71  84 133 195 143  13 146 240  16 142 174 141  79 196 204 207 152 157  25 245 135   9  68 174 136 230  97  28 132 151 178 154 122 252  48
 239 248 250 229 211 212 208   9 196 180 251 176 215  90  91 245 168  79 247   8 229 172 253 210 224 203  12  83  43  74 182 209 174 130 214  10  60 159 228  70  54 243  89 102 156   7 203 243 117 172 235  16  31 154   5  45  46  78 146 195  74 208 146  65
 136  36 251 150  92  23 144 166 172 212  22   8 170  48 158  31  25  32  21 184   0 179  46 163  98   4 246  53 210 219 115 152 189 161 110  68 170 127  82 178  28  46 193 180  73 134  12  73  87 157 196 181  90 199  88 226  48 136 243 136  78 122  46  37
 219  75  65 172 136  48 166 202  53 168  15  57 129   6 186  74 196 113 213  12 208  45  87 254 121  72 227 140 201 175  44  26 143 247  41  68 190 112 104  35  23 235 237  96 137 187 137 166 225 254  33   5  51 119 101 125   6 246 224  43 230 160 189 137
 179 187  59  20 214 220  34 137 180  81 206  55 252  58 211 108 135  85 213 142 206  82 141 145  30  58 148  68 104 104 145 194 123  92 129 253  86 193  43 166 181 182 209 219 121 245 151 163 209 101 234  36  52 164  57 168  44  57  90  57 216 222 104   3
 104  51  42 166 149  60 248  53 149 204  64 253 242 158 115  82 155 221 252 106  98 214 124 239  52 206 176 236 207  43 213 159   2 183   2  18 201  64 243 215 108  30 242 191  22 134 231 221 162 231  56   9 225 199 121 127 198 130  40 251 172 169 167 125
 158 214 186  73 179 124 233 195 254  94 104 135 159 126 176 241   4 120 142  63 153 223  76 109  66 239  95 108 197   0 123  69  58  63 127 138  59  29 142  10 208 194 181 103   1 180 206  61 224  14 250 180  72  50  46  34  18 122  31 125  53  24  89 210
