P2
# Generated by OpenCV 3.4.9
64 64
255
  10  34 221 125  77 162 120 217 115  84 202 200 208 111 175 138 195 128 159 248  14  12  66 154 222 218 110 247 111 188 201 211 115  46  81   1  66 102 116  58 110 252  55  27 218  70 159  49 237  39   6  31  53  77   5 124  27 208 110 121 196 237 218 247
 160  97 153  73 235  67  19  87  32  65 212 126 129  89 238  46 217 188 251 163 227 237 134  22  40  24 212 228 176  57  76 174 246 152 241 219  35  76 143 208  57  53   0 227 215  79 133 202 232 239 159 175  22 236  93 220  39  36  45 214 165 170 163 167
 179 112 135 141 114   1  43 147 118  27  35  38  44   0 142 188  84 123  25 157  25  74 111 176 209 162 157 194 205  65 199 158  44 247 162 208  52 127 120 137 125  64 117 100 197 159 164  42  89  21  54  56 129  14 105 197  67   1 136 124 139 219 218   0
  16 227 170 232 152 202  88 163  89 227  80 101 236 132  91  46 202 202  16 252 185 150 249  93 250 141  94   9 243  55 240 185 247  49 183 175 245 130   1  67  33 197  68  75  91 134 103 136  68 102 231 108  92 204  79  88 226 239 109  95 188 149 166 131
 172 156  17 200 134 234 163 206 116 123  40  69 112  71 244 135 240 203 223 232  84 210  72 134 218 133 181  38  40 234  27 190 151  13  30 220  75 107 207  79 115 173 159 205 192 228  44 230 173  59 233 190 199 199 155 194 235 182 195 211  62  95 219  46
  31 105 167 120 102 118 239 193 103 183  37  26   5 117 253   4 137  65 178 232 101 111 134 123  38 151 246 156 153 208   3  53 193  63  47 140   6 105 173 123  25  31 195  13  78 244  50 223  32 231 197 228 112  88  52 242 102  93  78 136  71 111  40 236
 121 135  97 129  34 251  81 175  53 220 104  76 194  59  46 241 163 214  51 153   7  77  60 137 253 152   4 175 164  86  13 199 174  82 115  78  49 150  33  18  18  44 124 167  54  24 156 132  32   0   1 219 178  58   6 230  69 143  35   3  73  98 250  49
 254 231  14   8  33 225 149  75  13 202  92 200  21  61 190 205 243 107 181 244  46  13  28 244 123 233 112  92  93 217 143 159 206 239  24  47 107 239  45  95 164 129 124  27 120 117  28 139  31 239  96 126 218 209 211 177 249 142  17 208  10  71  58  28
 142  23 119  29  67  23   1  30 178 178 131 190 217 132 175 244 100  70 148  51 207   3  50 176  48  74 197  97 175 190 194 158 190   3 200 172 128 105  81 152 125 181 234  99 251 123 212 102 126 231 159  95 195 212 226  24 207  37 101 213 170 160 106  19
 133 168 186  98  51 193  68   6 246  13 253 104  80 190  22 209 217 190 175 186  50  40 178 194 150 147 237 253  82  98 248 132 173 104 101  66  30  13  24 249  33  68  13 193 219 174 118 200 143  50 113 175 114  22  50 188   7  37 211 225 227 243 241 164
  50 243 169  38  30  71 164 157 168 115 136 186  50 188 186 174 220 158 184  88 167  26  86  44 183  96  60  85 102 222 223  14  47  66 240 190 186 228 144 144  49 137 140  91 113 147 199 141 206 223 106 216 119  55  79 207  56 109  56  55   3 250 236  67
 214 182  86 200 140  42 164 230 188  86 128  61 244 141 176  99  75 225  35 144  96 231 200 185  91 113  78  75 166 103 249  94 102 229 105  58  48  79 240 126  24  41  30 169  76  28 221 138 186  77 230 239 169 145  72 230   0  71 131 226   4  22 250  37
 206  31  20 239  61  20 104 112 191  83 132  22 213 169  88  57 211 101 143  61 158 225  52  40  13 123 142 156 203  84 238 123  62 123  99 227 239 145 233 158 236 228 143  38  24  29 100 158 108  74 234 127  99 208 244 170 136 221 144 115 125  48 169   5
  39  37 248 160 186 245   8 163 155  58  14  77 119 140  56  86 160 113 222  49 221  22 233  59  26  74  71 194 248  22  27 145 104 213 148  95  47  88 175 157   8 240 254 142 131  42 145  91  61 191 184 196  21   0  48 141 133   7  49 124 186  84  97  69
  82 123 243  52 233 250 173 167 170  85  17 149  80 119 224  38 201 220  71  59  20  42 225  72 191  44 184  81 121  75  53  13  21 188 250 140 173  79 135 155  54  24 136 247 178  92  54 230 210 166  27  92 105  87  67 183 185 232  57 194  36 211 136 164
  27 118  55  62  79 153 111 174  48 159 148 130 113 200 171 252 137 237 248 185 170 138 249  13 179 184  20   5 115  69 203 103  54 149   2 247 161  71  58 197   2  55  57 154  13 223 214  52  90 192  10 143  56   5  78  83  45  19 233  33 248 101 129 121
  67  30 167  69  49  93  15 176 207  20  48 101 229  18  45  77 203  14  65 207  58  18  38 213 169 212  85 127 168  85 119 198 142  56  39 193  52 169 149  81 106 151 225 121 170 224 240 101 251  79 164 131 228 180 172 185 172  85 106 153  30 181 161 143
 183 209 144  30  15 254 188 247  92  26  31  13 156 244  64  63 195  99  32  36 127  57 127 145  67  49 246 103  66   5 104  20  83  51 103  47 154 127 206 178 105 111   4 244  50  73 189 198 212   6  82 161 156 135 179 252  30 125  66 105 235 142  17  60
 193  39   4 234 108 200 247 240  13  19 193 155 127  24 168 139 167  72 153 137   9 249  62  64 231  98  94  83  40  70  19  59 131 230 182 163  68 192 136  76 211  26 172  16  89  38  40 167 101  73 127  92  11  69  30 132  65 164 140 195  12  82 203  96
 115 150  98 188 217 149 175  52  95 185 242 135 135  89  87  72 138 187  41  53 117  94   7  89 247  69  28 148  72  91 139 235 130   2  32  47 130 186 159 112  39   3   3 103 132 108 230  37   0  21  95 180  81 106   4   9  18 110 162 224  25 182 165 105
  71  96 206 156  77 162 107 192 238 127 215 119 121  50  75  82 172 211 104   3 159 185  50 126  68 122  33 186  91 101 240  57 105  24 124   9 193  38 189  21 163  30   1  94  69 130 122  82 199 181 134 223 129 187 170 193 223  18  56 188  51 179 122 145
 143 106  22 218  80 126 183 171  45  93  12 107 200 206  40 189 201  87 146 173 106  76 110 227 147 208 120 241 230  44 231 199 146  19 208 136 107 221  76 245   4   0 131  61  51 249  84 205 223 139 160 236 104 101 140  21 163  13   6  18  52 213  78 111
 228  53   5 136 133 118 193  37 253 200  66 123 231  18 190 142 181  71 222 195  12  89 192  66  29 157  42 124 118 183  74 215  13 158 105 127 250 167 121 138  67 213 191 159 229 137 120 241 217  53 127  16 237  66 221  32  98 195 102 243 145 230  10 216
 174 140   0 130 246 157 163  17  55 249 207 141 249  45 101 157 121 233  12 142 184 252  65 201  68  69  70  71 212 232  48 206 176 163 164 191 222  58 201 152  70  33  49 204 219  64  60 182  71  41  13 200  37  11   6 251 130  89   5 185  92 238 136   5
 168 234 203 234 104  95 117   1 126 199  20  92 140 101  94 216  81 164  67 254  72 108 230  21 170 117 160 254 163 208 171 136 237  27 187  93 247 192 182 196  52 159 140 130   4  50 252  45 104  28 225 168 194 184 192  91  56 200 153 244  30  77 227 133
 234 209  69 202 251  95  17 160 187 138 168 133   9  81 138 220 157 111  74  37  19  64   0 176  38 230  88  96  30 111 153  30 250 154  70 139  68 253 171 128 232  32 210 163  50  26  95 131  68 158 220 100 244 230  17 114 206  60  20 147 242 146 101 171
 161  29 132 196 155  41 143 140 182  11  38 109 107  94 147 153  39  72 104 171  11  72  57  13 165 169  80 253 252 151 231  70 230 188  27  83 188 191 112 102 228 226 165 239 189 179  56  53 136 238 217  74 222 140  87 229   2 240  42 202 231 141 121 191
  29 172  19 155  66  83  28 241 171 244 217 195 211 166 131  82  29  89 151 102 169 139  50 121 235 176 224 153 121 130  48  30 212 125 108 198  30  92 207 174  68   1  84  90 218 202 178  89 223 115  59 226  13 168 149  25  55   0 180  88 183 155 139 113
 108   3 153 153 106 227 119 155 194 157 197 174 162 251 112  57 160 156 138 142 198   5 130 206 254  12 234 176 127  96 153  77 213 243  31 212 117 164 123 188  95 189   5  87  27 117  81 238 172   7 100  50  54 209  74 170 216 115  87  98   4  39  27 252
 146  97 136 247  33  23  43  59 176  10  44 122 193 129 148 251  19  68 141 202 157 192  61 216  27 171  92 171  31  94 172 150  96 146 214  23 112  18 193  86  77 164  40 200 251 122   2 232 107  79 216  55  61 119  52  92 206 171  80 189  27 116  73 253
 237 202  62  15  37  25  32  56  57  95  41 124 130 199 194  50  92 134  52 128 102 119  66  39 248 202  78 151  29  31  14 143 206   5 170  91  30 152   3  92  71 157 109 230 148 105  89  13 142 171 150 203 217 148  36 217  23   2 172  15 111  99 114 112
   0 119 207   7 210  57  89 237 195 214  70 208 213  32  25 133  42 163 112  73 245 200 180  92  29 198  89 174 239  94  99  34  97 136 240 148 212 183  19   2 199  20 224 207  18  90  19 131 193 198 221  26  56 187 101 251   6 205 211  56  76 218  14  84
  66 190  98 232  81 193 187 133  77 181 213 214 184 237 202 128  26  63 227  36  49  68 208 118 195 103 209 220  10 202 230  60 120 178  95 152 140  89  79 112 232 212 109 223  47 179 136 137 106 244  24  94  12 159 220  72 172  72 176  18  82 117 180  91
 104  84 244 171 210  66 120 249 232 172  58  33 182 177  71 189 179 244  40 232 202  89 225 244 188  90 145 231  46 117  58  37 196 150  60 104 170  73  20 214  96 199 171  59  72 207 227 112  16  21 134 210  62  61  91 162  68  46  25  74 153 100  15  38
 233 233  15  90  43 243 138 124 226 146 198  36 232 127 252  87  33 141  63   0 206 160 236  71  95  40   0   2  33 104 200   4   2 154 120 170  14 159 105  73  65 237 189 170 241 251 211  37  17  22  90  80 140 226 213 189 157  88  29 185 150  74  53 192
  81 151  78  97  84 199 238   3 130 236 158 128  35 221 217 119 175 248 174 153  70 242 220  24 235  60  37  51  19 200   7  23 206 180 106 129 176 102 105 237 132  95 230 240  37 229 122  98 139  71 230  39  61 164  13 124 188  58 239 156 100 191 253 168
  28  34 206 177 142 214  50 152  71 125 250 217  62 196   5 220  13 201 115 116  52 222 204 102 231  11 163 163 194 102 231 105 193  80 175  55  17  73  14 240 146  87 224  23 226 108  64  64   9  55  86 156   5 195  22   8 176 222 217 181 116 135 119  55
 239 243 230 128 222 174 151  63 232 245  21  57 202 203  18  78  60 220 200  86  14  40 119 186  88 167 182  55 135 108 178  28 125  18 214 110 236 139 253  70 246 195  78  48 253 239  86  31 133 155 152  10 133 205 159 176 139  57 236 104 177  50  91 128
  63  94 168 204 188 101 148 171 157 116  90 119 132 214   1  74  84 154 231 149  97 176 142 206 109 225  75 123 130  44 138  67  30 219  70 170 107  29 184  38  46 109  97 201 186 104 107  36 138 143 112 247 150 213   0 116   5 168  74  75 103  74 223  91
 126  36 221 125  67 238  28 211  11 177 229  66  22 142  93 203 244 159  72 178  69 152 127 195 106  87  46 149 197 124  97 126 184  41  59 140 126 224  19 137  25 206 250 139 136  99 208 191 127  13  58  22  68  27 206  75  88  28 167  44 136  75   4 177
 102 172 249 103 209 119 128  20 214 194 168 112  73 176 212  73 182 174  14  17  33   8 172 121  69 236 133  96  68  88 141  83  22 244  23 130  14  91 166 190  17  91   9 100  76 102 220 159 187  22  27 140  36 100  60  55 205  98  77 165   4 244  69  84
 196  73 114 125  26 190 226 121 184 109 138 189  81 133 186 181 226 178 165 179 178 235  31 216  71 198 137 124  73 212 202 131  13  54 175  54 152  93  72   8 137 230 215 215  53   8 164  61  29  85  89  62  52 160 220 157 118 194 113   2 117  96 156 108
  75 237 248 100 137 221 179  33  88 195 144 199 236 163 114 176  33  69 204  18  48 159 215 166 114  18  72 103 168 203  34  87  27  93  71  62 221  91 158 102 236  20 211 234 133  22 180 234 138  56  54 200  84  74  38   3 169 200 145 120 235  63 252 239
 169 174   8 101  73  86  66 161 115 143  54 241 115 153 178 113  59 238 178  55 244 210 153 142  84  93  41  48 233  21 141 248 165  11  59  83 207 231  25 245  21 121 162  90 115  41 117 200 137 242  21 116 108 205  83 116 151  38  23  70 112  11  17   1
 114 235  47 171  67  91  58 240 137 113  28  18  11  18 235 169 161 125   5  30 209 180  31  53 204 147 244 145  92 171 252 167 234 110 206 184 135 172  18  79 135 198 135 125 123 173 254 150 249  90  19 105   0 191 118 113 113 122  17  94 161   6 224  11
  74 196  52  71 138  86  58  75  42 119  53  88 103  23 234 137 110 128 120   0 162  29 206   5  58  44 156  73  45 239 189 206 198  79 151  65 164  22 198 107 151 240  28  55 153 226 159 133 128 164  36  81  68  60   3 140 191  79  56  38  46 170 185 180
   5  17 244 198  99 153  35 247  11  94 122 252 176 154 120  93 152 221 231 124 210  78 205 125  72 217  88  89 113  90  40 232  37  79 235 217 225  52 237   9 142 249 185 238  70  21 128  47 197  51  74 239 180  91 213  89  71  74 165  43   2  89 190 168
 137 168 235 135  97 120  61 142  41 159 149  49 151  49  37  15 182 232 199 134  88  23 243  19 238 141 161  31  71 234 110 155  50 199 244 163  76  98  96  94 168  85  42   4  68 221 105  88 126 150 109  64 243 122  23  37  68 139 110  96 254 101 184 132
 230  13  72  79 240  49 125 170  10  46 171  45 184  70 100  91 207   8 147   6 218 162 166 127 100  12 220 100  87 221 147 182 132  26 168   9 200 215 209 160 133 198 102 247 213 120  15  77 237  42 135 153 222  64  73 230  14 176 215 176 253  23  88 159
 234 128 217  57  76 185 212 177 123 115  64 171  71  30  51 219 125 126 233  94 212 212 230  79 172  45 169 172 232  57 194  58 241 151 240 146  15 113 110  88 130   8  94 156 254  99 107 130  86 184  17 142 178 149 191  59 115 109 247  10 119 251  75  60
  67 146 199 129 250  13  71  92  46  11  46 159 115  84  32 133 199 120 127  22 238  82  70 201  20  75  21 239 243 202  73 249 136  38 229  81 108  13  50  84 230 241  62  25 208  18 167  94 107  95  54  68 136 149 186 226  18 203 178 151 195 103  13  36
 175  29  58 166  29   7 123  62 218 140 161 176 106 108  41  42 175  51 188 173  91  89 120  70 103 241  15  55  80  16 229 208 128   0  93 151  98 144 136  46  41 121 195 177  84  12 123  80 225 185 253 120  65  59 222 185   9 192 227 224 178 242 202  43
 146  75  57 201  18  31  70 126 204 219  12 208  13 151 211 171 130  81  15  98 168 218  75 128 117 163  41  80 235  21 159  38 183 221  17 231 194  40 156  38   6 146 189 100  74 104 186  12   5 185  43  79 102 250 161 148 234  86  11  81 180 191 200 225
 239 197 120 120  15 147  87 213 243 161 214  35 106  41 236 252 243 161 149  46 135  61 251 200 198 176 238 168 190  27 124   9 218  92 197 150  76  45 103  56  95 202 188 168 196  40 220 178  91 168 153 239 147 174 146  40  80  65 102   9 174 235  97  67
  34 120 104 134 142  72 189   5 205 200 110 153 118 176 119  45 219 196  52   2  12   1   1 222 120 241  81 136 192  85 199  81 169 105 224 159  54 182  39 135  62 133   5  87  71 125 176  52 101 183   8  53 246 246 129 189 246 207  82 193  84  41  15 222
 226 186 154  25  69 144  99  35 181  23 233 204 126  28  13  27 108 149   6 191  15  13 207 157 199  71 109 242 222 107  26  23  97 138   9  71 227  13  33  37   0  72  30 166 172 120   8 187  19 241 154  31 186 176  88  69 194 196  73 221 126  60 230 240
 139 234 212  46  37  10  30 142 204 117 180 121  71 246  49 107 209 126  36  22 138 179 133 237   4  96  32  88  51  66 149 247 124  79  90 170 133  12  33  93  94 221 150 101   6 174  84   3 156 112  55  91 249 198 225 191 224 189  84  66 201 244  24 237
   2 168  33 101  50  76 178 184  43 211 150  10  94 204 177 173  51 146 142  63 110   4 111 108  28  15  87 110  20   2 108 175 158 121 126 100 244  32 217 159 205 216  73 217 129 163  12 141  21 214 191 128  37  25  46 115 232  33 146 142 214   2   5 140
 114 184  28 165   2 157  97 160 113 217 231   6 198 200  77 174 112  33  58 161 193 124  20 248 236 217 127 162 176  68  73  62 217  70  40  80 166 141 232 193 218  42 250 159 184  43  85  59  73 195 232 219  97  75 112  33 167 164  24 207  39 210 227 172
 135 237 197 180 197 135 233 119 150 243 169  97 244 169 190 203 200 235 223 123   6 111 235  21 254 159 178 129 173 178 153 179 184 112 191  62 110  54 148 220 211 188 126 174 232 152  96 100 107  49 191 113  30   9 242 198 227  78  65 141  94  44 114  87
 133 194 114 129 127 170  15  15 213  13 147 208 152 203  14  24  60 223   0 145 151  43  98 171 217 129 131 190 177  10  63  40 212 178 131 149  43  45 180 125 192 110 185 109 241 230  16   4  18 232 202  23  81  72 170 115 252 153  33  13 125 196   3 242
  31   8   7 174 125 222  13 249   6 128 243  84 203   7 171  51  99 189 160  60   6 103 234 181  96 109 150 243 252 206  62  94  27  46  37 195  75  74 139 166 181 192 213 175  46 251   0 141 118 214 166 198  69 168 144 189  99 146 177  12  64  76 226 219
 185 105 109 177   1 210  80  13 190 232 201 140 150  49 212 247 211 193 231  19 143 104 122 250  82  49 167 158 163 179 105  82 165 159 162 162 220  34 145 145   1 127   1 229 110 158 196 149 132 119 104 215  37  29 151  27 113  64  57  24 192 126  39 112
  74 229  85 247 193 159  60 151   7 165  92 188 148 195 230 166 104 160 107 150  91 196 118  57 144 189 198   7 185 131 149 210 181  61 139  78   9 125 112 124 149 110  53  55 191  16 228 212  85 188 101  71  31 110 252 145 165 111 117  73 225 139  60  98
